<svg height="512pt" viewBox="0 0 512 512" width="512pt" xmlns="http://www.w3.org/2000/svg"><path d="m360.042969 104.757812c8.890625.339844 17.488281 1.140626 25.640625 1.910157 6.28125.59375 12.3125 1.15625 18.128906 1.519531 25.363281 1.617188 46.699219-.472656 66.761719-20.535156l30.816406 30.820312c-30.269531 30.269532-63.855469 34.625-94.140625 33.492188-8.882812-.332032-17.488281-1.140625-25.640625-1.910156-6.28125-.59375-12.3125-1.15625-18.136719-1.527344-25.363281-1.617188-46.699218.46875-66.761718 20.53125-20.070313 20.070312-22.15625 41.40625-20.539063 66.769531-5.816406-.378906-11.851563-.9375-18.128906-1.53125-8.144531-.765625-16.75-1.574219-25.640625-1.894531-1.140625-30.296875 3.21875-63.886719 33.492187-94.160156 30.269531-30.269532 63.863281-34.632813 94.148438-33.484376zm-349.4375 288.769532 30.820312 30.816406c20.0625-20.058594 41.394531-22.148438 66.761719-20.53125 5.824219.371094 11.855469.933594 18.132812 1.527344 8.144532.761718 16.753907 1.570312 25.636719 1.902344 30.292969 1.140624 63.886719-3.222657 94.15625-33.492188 30.273438-30.273438 34.632813-63.863281 33.484375-94.152344-8.882812-.332031-17.488281-1.140625-25.632812-1.902344-6.277344-.59375-12.3125-1.15625-18.136719-1.527343 1.617187 25.363281-.46875 46.699219-20.53125 66.761719s-41.398437 22.152343-66.769531 20.539062c-5.816406-.375-11.847656-.9375-18.128906-1.53125-8.144532-.761719-16.75-1.574219-25.632813-1.902344-30.296875-1.140625-63.886719 3.222656-94.160156 33.492188zm0 0" fill="#57a4ff"/><path d="m126.324219 405.339844c8.140625.761718 16.75 1.570312 25.632812 1.902344 1.148438 30.289062-3.214843 63.878906-33.484375 94.152343l-30.820312-30.820312c20.0625-20.0625 22.152344-41.398438 20.535156-66.761719 5.824219.371094 11.855469.933594 18.136719 1.527344zm259.359375-298.671875c6.28125.59375 12.3125 1.15625 18.128906 1.519531-1.617188-25.363281.472656-46.699219 20.535156-66.761719l-30.820312-30.816406c-30.269532 30.269531-34.632813 63.863281-33.484375 94.148437 8.890625.339844 17.492187 1.140626 25.640625 1.910157zm-216.613282 190.035156c20.0625-20.0625 41.398438-22.148437 66.761719-20.53125 5.824219.367187 11.859375.929687 18.136719 1.523437 8.144531.765626 16.75 1.574219 25.632812 1.902344 30.296876 1.140625 63.886719-3.21875 94.160157-33.492187 30.269531-30.269531 34.632812-63.863281 33.484375-94.148438-8.882813-.332031-17.488282-1.140625-25.632813-1.902343-6.28125-.59375-12.3125-1.15625-18.136719-1.527344 1.617188 25.363281-.472656 46.699218-20.535156 66.761718s-41.394531 22.148438-66.765625 20.539063c-5.816406-.378906-11.851562-.9375-18.128906-1.53125-8.144531-.765625-16.75-1.574219-25.632813-1.902344-30.296874-1.140625-63.886718 3.21875-94.160156 33.492188h-.003906c-30.269531 30.269531-34.632812 63.863281-33.484375 94.148437 8.882813.332032 17.488281 1.140625 25.632813 1.902344 6.28125.59375 12.3125 1.15625 18.128906 1.535156-1.609375-25.371094.476562-46.707031 20.539062-66.769531zm0 0" fill="#ff7956"/><path d="m377.484375 444.996094c-37.359375 0-67.648437-30.285156-67.648437-67.644532v-67.648437h67.648437c37.359375 0 67.644531 30.289063 67.644531 67.648437 0 37.359376-30.285156 67.644532-67.644531 67.644532zm0 0" fill="#ffe477"/><path d="m258.042969 234.296875c6.277343.59375 12.3125 1.15625 18.128906 1.53125-.058594-.871094-.109375-1.738281-.152344-2.601563-4.445312-.359374-8.992187-.65625-13.617187-.824218-1.140625-30.296875 3.222656-63.886719 33.492187-94.160156 23.015625-23.015626 47.949219-31.050782 71.890625-33.078126-2.550781-.167968-5.132812-.308593-7.742187-.40625-30.285157-1.148437-63.878907 3.210938-94.148438 33.484376-30.273437 30.269531-34.632812 63.863281-33.492187 94.160156 8.890625.324218 17.496094 1.128906 25.640625 1.894531zm0 0" fill="#006df0"/><path d="m178.53125 363.472656c25.371094 1.609375 46.703125-.476562 66.765625-20.539062 19.375-19.375 21.988281-39.9375 20.6875-64.164063-4.101563-.332031-8.113281-.707031-12.019531-1.074219-6.277344-.59375-12.3125-1.15625-18.136719-1.523437 1.617187 25.363281-.46875 46.695313-20.53125 66.757813-12.953125 12.953124-26.4375 18.414062-41.191406 20.222656 1.488281.117187 2.964843.226562 4.425781.320312zm0 0" fill="#006df0"/><path d="m40.609375 393.527344c23.03125-23.03125 47.984375-31.0625 71.945313-33.085938-2.566407-.167968-5.167969-.308594-7.789063-.40625-30.296875-1.140625-63.886719 3.222656-94.160156 33.492188l30.820312 30.820312c5.585938-5.585937 11.269531-9.78125 17.113281-12.886718zm0 0" fill="#006df0"/><g fill="#ff3f62"><path d="m306.175781 235.828125c25.371094 1.609375 46.707031-.476563 66.769531-20.539063 19.375-19.375 21.984376-39.933593 20.683594-64.164062-4.097656-.328125-8.109375-.707031-12.015625-1.070312-6.28125-.59375-12.3125-1.15625-18.136719-1.527344 1.617188 25.363281-.46875 46.695312-20.53125 66.761718-12.953124 12.953126-26.4375 18.410157-41.195312 20.222657 1.488281.117187 2.964844.222656 4.425781.316406zm0 0"/><path d="m385.683594 106.667969c6.28125.59375 12.3125 1.15625 18.128906 1.519531-.054688-.871094-.105469-1.734375-.148438-2.59375-4.445312-.359375-8.992187-.660156-13.617187-.835938-.945313-24.945312 1.847656-52.132812 19.773437-77.859374l-16.289062-16.292969c-30.273438 30.273437-34.632812 63.863281-33.484375 94.152343 8.886719.339844 17.488281 1.140626 25.636719 1.910157zm0 0"/><path d="m130.398438 361.9375c6.28125.59375 12.3125 1.15625 18.128906 1.535156-.054688-.875-.105469-1.742187-.152344-2.605468-4.441406-.355469-8.984375-.660157-13.605469-.832032-1.148437-30.285156 3.210938-63.878906 33.484375-94.148437h.003906c23.03125-23.03125 47.984376-31.066407 71.945313-33.089844-2.570313-.167969-5.167969-.304687-7.789063-.402344-30.296874-1.140625-63.886718 3.21875-94.160156 33.492188h-.003906c-30.269531 30.269531-34.632812 63.863281-33.484375 94.148437 8.882813.332032 17.488281 1.140625 25.632813 1.902344zm0 0"/><path d="m117.65625 470.574219c19.375-19.375 21.984375-39.933594 20.683594-64.164063-4.097656-.328125-8.109375-.707031-12.015625-1.070312-6.28125-.59375-12.3125-1.15625-18.136719-1.527344 1.617188 25.363281-.472656 46.699219-20.53125 66.761719l30.816406 30.816406c5.339844-5.335937 9.871094-10.78125 13.710938-16.289063zm0 0"/></g><path d="m339.839844 377.347656v-67.644531h-30.003906v67.644531c0 37.359375 30.289062 67.648438 67.648437 67.648438 5.152344 0 10.175781-.578125 15-1.671875-30.140625-6.820313-52.644531-33.769531-52.644531-65.976563zm0 0" fill="#ffb655"/><path d="m369.984375 366.273438h15v46.746093h-15zm0 0"/><path d="m369.984375 341.273438h15v15h-15zm0 0"/><path d="m377.484375 302.203125h-75.148437v75.148437c0 41.433594 33.710937 75.144532 75.148437 75.144532s75.144531-33.707032 75.144531-75.144532-33.707031-75.148437-75.144531-75.148437zm0 135.292969c-33.164063 0-60.148437-26.980469-60.148437-60.148438v-60.144531h60.148437c33.164063 0 60.144531 26.980469 60.144531 60.144531 0 33.167969-26.980468 60.148438-60.144531 60.148438zm0 0"/><path d="m313.933594 240.769531 11.8125 11.8125 10.609375-10.605469-7.128907-7.128906c4.566407-2.40625 9.019532-5.398437 13.386719-9.082031l9.867188 9.867187 10.609375-10.609374-9.851563-9.847657c3.59375-4.242187 6.605469-8.6875 9.097657-13.375l7.183593 7.183594 10.605469-10.609375-11.792969-11.792969c1.484375-5.484375 2.421875-11.296875 2.820313-17.515625l-14.96875-.960937c-.128906 1.988281-.320313 3.898437-.566406 5.761719l-17.492188-17.496094c43.804688-5.714844 110.785156 25.191406 168.570312-32.59375l5.304688-5.304688-41.425781-41.425781c-6.664063 6.664063-13.195313 13.898437-24.804688 18.882813l-29.699219-29.699219c4.921876-11.511719 12.050782-17.972657 18.882813-24.804688l-41.425781-41.425781-5.304688 5.304688c-21.65625 21.65625-33.246094 47.476562-35.429687 78.929687l14.964843 1.039063c1.769532-25.453126 10.050782-45.949219 25.929688-63.898438l20.269531 20.269531c-3.582031 4.246094-6.59375 8.695313-9.078125 13.390625l-7.640625-7.640625-10.605469 10.609375 12.28125 12.285156c-1.457031 5.4375-2.382812 11.199219-2.777343 17.359376l14.96875.960937c.125-1.925781.308593-3.777344.542969-5.589844l17.34375 17.34375c-44 5.644531-110.679688-25.148437-168.402344 32.574219-21.65625 21.65625-33.246094 47.472656-35.433594 78.933594l14.964844 1.039062c1.953125-28.074218 11.828125-50.117187 31.074218-69.363281 67.101563-67.101563 143.339844 1.710937 199.160157-45.503906l20.265625 20.265625c-68.570313 60.585937-143.421875-10.347656-199.214844 45.445312-14.292969 14.296875-21.574219 30.671875-22.914062 51.53125l14.96875.960938c.121093-1.867188.300781-3.664063.527343-5.425782l17.199219 17.203126c-43.773438 5.53125-110.597656-25.085938-168.238281 32.554687-21.652344 21.660156-33.242188 47.476563-35.425781 78.925781l14.964843 1.039063c1.945313-28.066407 11.820313-50.105469 31.070313-69.355469 55.894531-55.894531 120.71875-17.386719 170.375-30.417969zm4.066406-17.144531-29.625-29.625c2.109375-4.960938 4.917969-9.550781 8.515625-13.960938l35.074219 35.074219c-4.53125 3.679688-9.148438 6.457031-13.964844 8.511719zm33.160156-33c-2.125 4.9375-4.957031 9.503906-8.570312 13.898438l-35.113282-35.113282c4.511719-3.695312 9.113282-6.492187 13.90625-8.566406zm0 0"/><path d="m379.066406 251.410156c21.65625-21.65625 33.242188-47.472656 35.425782-78.925781l-14.964844-1.039063c-1.945313 28.070313-11.820313 50.109376-31.070313 69.359376-55.941406 55.941406-120.867187 17.320312-170.539062 30.460937l-12.25-12.25-10.609375 10.605469 7.59375 7.59375c-4.554688 2.417968-9 5.417968-13.363282 9.109375l-10.328124-10.332031-10.609376 10.609374 10.328126 10.324219c-3.585938 4.25-6.589844 8.703125-9.074219 13.398438l-7.605469-7.601563-10.605469 10.605469 12.242188 12.242187c-1.457031 5.4375-2.386719 11.199219-2.78125 17.359376l14.96875.960937c.125-1.925781.308593-3.777344.542969-5.589844l17.339843 17.34375c-43.816406 5.625-110.683593-25.136719-168.402343 32.578125l-5.304688 5.304688 41.425781 41.425781c6.6875-6.683594 13.207031-13.902344 24.804688-18.882813l29.699219 29.699219c-4.921876 11.511719-12.050782 17.972657-18.882813 24.804688l41.425781 41.425781 5.304688-5.304688c21.65625-21.65625 33.246094-47.476562 35.429687-78.933593l-14.964843-1.035157c-1.769532 25.449219-10.050782 45.949219-25.929688 63.898438l-20.269531-20.269531c3.582031-4.25 6.59375-8.695313 9.078125-13.390625l7.640625 7.636718 10.605469-10.605468-12.28125-12.285156c1.457031-5.4375 2.382812-11.199219 2.777343-17.359376l-14.96875-.960937c-.125 1.925781-.308593 3.777344-.542969 5.585937l-17.34375-17.34375c43.867188-5.625 110.695313 25.136719 168.410157-32.582031 21.65625-21.65625 33.246093-47.472656 35.429687-78.929687l-14.96875-1.039063c-1.945312 28.074219-11.820312 50.113281-31.070312 69.363281-67.042969 67.046876-143.292969-1.753906-199.167969 45.507813l-20.257813-20.257813c68.722657-60.429687 143.480469 10.277344 199.214844-45.460937 14.292969-14.292969 21.574219-30.664063 22.910156-51.523437l-14.96875-.960938c-.125 1.925781-.3125 3.78125-.546874 5.59375l-17.347657-17.351562c43.851563-5.628907 110.699219 25.140624 168.421875-32.582032zm-218.277344 70.097656c2.113282-4.949218 4.933594-9.523437 8.539063-13.929687l35.09375 35.09375c-4.519531 3.6875-9.128906 6.472656-13.933594 8.535156zm62.78125-3.375c-2.117187 4.949219-4.9375 9.527344-8.542968 13.929688l-35.089844-35.089844c4.519531-3.691406 9.128906-6.476562 13.929688-8.539062zm0 0"/><path d="m160.640625 393.167969c-11.046875 0-22.195313-1.046875-32.980469-2.058594-7.59375-.714844-15.449218-1.453125-23.046875-1.792969l.671875-14.984375c7.964844.355469 16.003906 1.113281 23.777344 1.84375 10.441406.976563 21.230469 1.992188 31.578125 1.992188 9.585937 0 17.929687-.875 25.5-2.667969l3.460937 14.597656c-8.71875 2.066406-18.191406 3.070313-28.960937 3.070313zm39.355469-6.160157-5.089844-14.109374c4.273438-1.542969 8.433594-3.476563 12.371094-5.753907l7.507812 12.988281c-4.707031 2.71875-9.679687 5.03125-14.789062 6.875zm23.847656-12.828124-8.925781-12.058594c3.578125-2.648438 7.105469-5.703125 10.484375-9.082032l10.609375 10.605469c-3.902344 3.902344-7.996094 7.449219-12.167969 10.535157zm0 0" fill="#fff"/><path d="m262.136719 208.710938-14.890625-1.820313c2.875-23.480469 11.945312-42.152344 28.546875-58.75 4.214843-4.21875 8.683593-8.023437 13.28125-11.308594l8.726562 12.203125c-3.929687 2.808594-7.765625 6.078125-11.402343 9.710938-14.105469 14.105468-21.816407 29.984375-24.261719 49.964844zm43.386719-64.566407-7.285157-13.113281c4.730469-2.628906 9.734375-4.859375 14.871094-6.636719l4.898437 14.179688c-4.316406 1.488281-8.515624 3.363281-12.484374 5.570312zm21.300781-8.074219-3.304688-14.628906c5.074219-1.148437 10.265625-1.929687 15.867188-2.382812l1.21875 14.949218c-4.894531.398438-9.398438 1.074219-13.78125 2.0625zm0 0" fill="#fff"/><path d="m412.941406 412.808594-10.605468-10.609375c13.699218-13.699219 13.699218-35.996094 0-49.699219l10.605468-10.605469c19.550782 19.546875 19.550782 51.363281 0 70.914063zm0 0" fill="#fff"/></svg>